<svg id="a527cdec-0dd6-4bf8-bc63-fa70bb1cfc82" data-name="Слой 1" xmlns="http://www.w3.org/2000/svg" viewBox="0 0 708.8493 679.35031">
  <title>Sea-Turtle-Monogram</title>
  <g>
    <path d="M729.07908,531.4104c-1.1843,3.1804-5.10008,4.2941-8.4879,4.4962-7.7526.4623-15.6761-1.4559-23.0321-3.741-7.0739-2.1975-13.0294-7.0534-20.2532-8.8685a81.261,81.261,0,0,0-8.7992-1.3349c-7.9341-1.0897-15.5366-3.7964-22.8828-6.8995-5.884-2.4853-11.6743-6.8313-17.9025-8.0711-1.60538-.3196-3.231-.5119-4.8591-.6899-.0387,1.1388-.2282,2.464.2749,2.9162,23.3345,20.9864,34.6104,47.0605,31.6752,82.8696-2.1235,25.9062-11.9093,37.1912-21.33938,51.4738a18.833,18.833,0,0,0,.63428,1.9576c2.5475,6.4121,8.8342,9.8727,13.5611,14.558,3.485,3.4544,6.561,7.5091,7.88662,12.2336,1.09488,3.902.948,8.0805,2.14658,11.9522.7369,2.3801,2.0556,5.2907,1.2787,7.8176-.88628,2.8819-2.6411,5.0194-2.9697,8.2051-.2352,2.2799-.0262,4.584-.1784,6.8721-.2663,4.0002-2.3966,7.4105-6.7939,7.515-3.0511.0723-5.9111-1.3361-8.7185-2.5334a70.52447,70.52447,0,0,0-8.5627-3.0158c-5.5038-1.5485-11.1802-2.3537-14.0682-8.0632-2.0926-4.1372-7.2475-5.9951-7.5952-11.2025-.1685-2.522.9894-4.9585,1.0666-7.4849a9.04994,9.04994,0,0,0-3.5765-7.2352c-12.4676,8.4048-25.022,28.4739-42.0004,27.6057-13.094-.6696-26.2969-12.5368-40.7402-27.9337a9.102,9.102,0,0,0-4.03219,7.5632c.07719,2.5264,1.23509,4.9629,1.06669,7.4849-.34769,5.2074-5.5026,7.0653-7.5953,11.2025-2.888,5.7095-8.5645,6.5147-14.0682,8.0632a70.52018,70.52018,0,0,0-8.5627,3.0158c-2.80749,1.1973-5.6674,2.6057-8.7186,2.5334-4.3972-.1045-6.5275-3.5148-6.7938-7.515-.152-2.2881.0566-4.5922-.1784-6.8721-.3285-3.1857-2.0834-5.3232-2.9696-8.2051-.777-2.5269.5416-5.4375,1.2786-7.8176,1.1986-3.8717,1.0518-8.0502,2.1466-11.9522,1.3256-4.7245,4.4018-8.7792,7.88671-12.2336,4.72659-4.6853,11.01339-8.1459,13.56109-14.558.0837-.2108.1748-.4658.268-.7429-8.9614-15.7792-20.8583-30.3464-21.7777-52.6885-1.4405-35.0035,8.2185-62.9105,32.0268-83.1016.6119-.5189.7681-1.6554.89081-2.8367-2.07571.2233-4.15281.4351-6.19911.8424-6.2281,1.2398-12.0185,5.5858-17.9023,8.0711-7.3465,3.1031-14.9488,5.8098-22.8831,6.8995a81.2518,81.2518,0,0,0-8.7989,1.3349c-7.224,1.8151-13.1794,6.671-20.2532,8.8685-7.3561,2.2851-15.2798,4.2033-23.03239,3.741-3.38781-.2021-7.30341-1.3158-8.48771-4.4962a7.01845,7.01845,0,0,1-.1206-3.959c1.684-7.5334,10.4607-14.6058,15.55031-20.0211A155.39578,155.39578,0,0,1,437.49709,488.81c11.7963-8.7566,25.5067-14.3166,39.3473-18.9627,10.2772-3.4499,23.5558-9.3626,34.4992-7.1541,9.1706,1.8509,16.7796,6.6381,20.5693,15.5141a80.57315,80.57315,0,0,0,3.6683,7.8581c.8339-.4367,1.6661-.8741,2.5096-1.3072,1.1484-.5897,2.3068-1.1852,3.4743-1.7753.1476-.1935.3093-.3764.453-.5727a18.73554,18.73554,0,0,0,3.9965-9.9203c.1415-2.7971-.60259-5.5512-1.1152-8.3046a88.28891,88.28891,0,0,1-1.0351-17.74c.1395-7.8946.4939-16.0233,2.4601-23.7043a18.29156,18.29156,0,0,1,2.3309-5.7447,57.096,57.096,0,0,1,5.1566-5.7981,62.82316,62.82316,0,0,0,5.2425-6.7548c2.6643-3.9631,8.1957-5.4695,11.617-1.4781,1.83861,2.1452,3.1332,4.5895,4.7559,6.8838,1.75271,2.478,4.2634,4.1842,6.1704,6.5031,4.2199,5.1316,5.3174,12.8729,5.801,19.2944a136.4314,136.4314,0,0,1-.5359,22.8507c-.6422,6.906-2.63579,14.418.661,20.9532a12.878,12.878,0,0,0,3.1193,3.8633q1.807.9462,3.6071,1.9336c.3634.1987.7243.4059,1.0872.6066a83.62966,83.62966,0,0,0,3.5442-7.6467c3.7897-8.876,11.3987-13.6632,20.5691-15.5141,10.94332-2.2085,24.222,3.7042,34.4994,7.1541,13.8403,4.6461,27.55092,10.2061,39.3473,18.9627a155.42211,155.42211,0,0,1,20.3521,18.6203c5.08952,5.4153,13.8663,12.4877,15.5503,20.0211A7.02023,7.02023,0,0,1,729.07908,531.4104Z" transform="translate(-20.57533 -35.32486)" style="fill: #ec2d90"/>
    <path d="M348.40539,162.1574c-1.684-7.5333-10.4608-14.6058-15.5503-20.0211A155.42952,155.42952,0,0,0,312.503,123.516c-11.79641-8.7566-25.507-14.3166-39.34731-18.9627-10.2774-3.4499-23.5561-9.3625-34.4994-7.154-9.17029,1.8508-16.7794,6.638-20.569,15.514A83.64551,83.64551,0,0,1,214.543,120.56c-.36291-.2006-.72381-.4079-1.08721-.6065q-1.8-.9837-3.6071-1.9337a12.87988,12.87988,0,0,1-3.1193-3.8633c-3.2968-6.5352-1.3032-14.0471-.661-20.9531a136.4214,136.4214,0,0,0,.5359-22.8508c-.4836-6.4214-1.5811-14.1627-5.801-19.2943-1.907-2.319-4.4176-4.0252-6.1704-6.5032-1.6227-2.2942-2.9173-4.7386-4.7559-6.8838-3.4213-3.9913-8.9527-2.485-11.617,1.4781a62.83678,62.83678,0,0,1-5.2424,6.7549,57.08329,57.08329,0,0,0-5.1566,5.7981,18.29028,18.29028,0,0,0-2.331,5.7447c-1.9662,7.6809-2.3206,15.8097-2.46,23.7042a88.28147,88.28147,0,0,0,1.035,17.7401c.5127,2.7533,1.2568,5.5074,1.1152,8.3045a18.73362,18.73362,0,0,1-3.9965,9.9203c-.1437.1964-.3054.3792-.453.5727-1.1675.5901-2.3259,1.1856-3.4743,1.7754-.8435.4331-1.6757.8704-2.5095,1.3072a80.56285,80.56285,0,0,1-3.6684-7.8582c-3.7897-8.876-11.3987-13.6632-20.5693-15.514-10.9433-2.2085-24.2219,3.7041-34.4992,7.154-13.8405,4.6461-27.551,10.2061-39.3473,18.9627a155.40353,155.40353,0,0,0-20.3521,18.6203c-5.0896,5.4153-13.8663,12.4878-15.5503,20.0211a7.01752,7.01752,0,0,0,.1207,3.959c1.1842,3.1805,5.0998,4.2942,8.4876,4.4962,7.7527.4623,15.6763-1.4558,23.0324-3.741,7.0738-2.1975,13.0293-7.0533,20.2532-8.8685a81.22691,81.22691,0,0,1,8.7989-1.3348c7.9343-1.0897,15.5366-3.7965,22.8832-6.8996,5.8838-2.4853,11.6741-6.8312,17.9022-8.0711,2.0463-.4073,4.1234-.6191,6.1991-.8423-.1227,1.1812-.2789,2.3177-.8908,2.8366-23.8083,20.1912-33.4673,48.0982-32.0268,83.1016.9194,22.3422,12.8163,36.9093,21.7777,52.6886-.0932.2771-.1843.5321-.268.7428-2.5476,6.4122-8.8344,9.8728-13.5611,14.558-3.4849,3.4544-6.5611,7.5091-7.8867,12.2336-1.0948,3.902-.948,8.0805-2.1466,11.9522-.7369,2.3802-2.0556,5.2907-1.2785,7.8176.8861,2.882,2.641,5.0194,2.9695,8.2052.2351,2.2799.0264,4.5839.1784,6.872.2663,4.0003,2.3966,7.4106,6.7938,7.515,3.0512.0724,5.9112-1.336,8.7186-2.5334a70.5595,70.5595,0,0,1,8.5627-3.0158c5.5038-1.5484,11.1802-2.3537,14.0682-8.0631,2.0927-4.1372,7.2476-5.9952,7.5953-11.2025.1684-2.522-.9895-4.9586-1.0667-7.485a9.10191,9.10191,0,0,1,4.0323-7.5632c14.4432,15.3969,27.6461,27.2641,40.7401,27.9337,16.97839.8683,29.53279-19.2009,42.00039-27.6056a9.04989,9.04989,0,0,1,3.5765,7.2351c-.0772,2.5264-1.2351,4.963-1.0665,7.485.34761,5.2073,5.5025,7.0653,7.5951,11.2025,2.888,5.7094,8.56451,6.5147,14.0682,8.0631a70.55911,70.55911,0,0,1,8.5627,3.0158c2.8075,1.1974,5.6674,2.6058,8.7185,2.5334,4.3973-.1044,6.5276-3.5147,6.7939-7.515.15221-2.2881-.05679-4.5921.1784-6.872.3286-3.1858,2.0834-5.3232,2.9697-8.2052.7769-2.5269-.5417-5.4374-1.2787-7.8176-1.1986-3.8717-1.0517-8.0502-2.1466-11.9522-1.32559-4.7245-4.40159-8.7792-7.8865-12.2336-4.727-4.6852-11.0136-8.1458-13.56109-14.558a18.805,18.805,0,0,1-.63441-1.9575c9.4301-14.2826,19.2159-25.5677,21.3395-51.4739,2.9351-35.809-8.3408-61.8831-31.6753-82.8695-.5031-.4523-.3136-1.7774-.2749-2.9162,1.62811.1779,3.2538.3702,4.85911.6898,6.22819,1.2399,12.01849,5.5858,17.90249,8.0711,7.3462,3.1031,14.9487,5.8099,22.8828,6.8996a81.23233,81.23233,0,0,1,8.7992,1.3348c7.2238,1.8152,13.1793,6.671,20.2532,8.8685,7.356,2.2852,15.2795,4.2033,23.0322,3.741,3.3877-.202,7.3035-1.3157,8.4879-4.4962A7.021,7.021,0,0,0,348.40539,162.1574Zm-133.7515-23.7749-10.1868,14.1909H166.8305l-10.687-14.8877C174.4186,128.5497,195.8026,129.0078,214.65389,138.3825ZM230.285,188.9213l27.22929,3.8446a101.44673,101.44673,0,0,1,.2304,52.1048l-24.8009,1.2872-21.872-30.4704Zm-23.24851,85.8581H166.6092l-19.614-27.3228,19.614-27.3228h40.4273l19.614,27.3228Zm-65.1599-30.258H115.1861a111.1902,111.1902,0,0,1-3.0973-21.6765,105.55085,105.55085,0,0,1,3.288-30.6295l25.319-3.3107,20.5516,28.6309Zm63.8334-31.432H165.2827l-19.6141-27.3229,19.6141-27.3228H205.71l19.614,27.3228Zm-65.1763-64.438a65.77588,65.77588,0,0,1,10.4569-8.0759l9.9458,13.855L140.414,183.021l-23.1964,3.0331A90.01064,90.01064,0,0,1,140.5337,148.6514ZM116.7633,250.3918h25.1133l21.0869,29.3766-14.1946,19.7743C133.2315,288.0976,122.4591,269.5717,116.7633,250.3918Zm52.8612,59.0689a57.62016,57.62016,0,0,1-15.9767-6.6466l13.9142-19.3839h37.63779l12.3529,17.2079C203.39079,309.5483,186.8028,313.6955,169.6245,309.4607Zm52.7808-12.1306-12.165-16.946,20.2575-28.2212,25.48921-1.3228c-.47571,1.4343-.97691,2.8599-1.52021,4.2695A96.75246,96.75246,0,0,1,222.40529,297.3301Zm33.2051-110.762-25.0213-3.5327-20.3804-28.3925,9.6292-13.414c.6067.3649,1.2136.7294,1.8134,1.1137C238.11649,152.892,249.46539,168.7405,255.61039,186.5681Z" transform="translate(-20.57533 -35.32486)" style="fill: #f9a21e"/>
    <path d="M729.19978,162.1574c-1.684-7.5333-10.46078-14.6058-15.5503-20.0211a155.42909,155.42909,0,0,0-20.3521-18.6203c-11.7963-8.7566-25.507-14.3166-39.3473-18.9627-10.2774-3.4499-23.55608-9.3625-34.4994-7.154-9.1704,1.8508-16.7794,6.638-20.5691,15.514a83.61723,83.61723,0,0,1-3.5442,7.6467c-.3629-.2006-.7238-.4079-1.0872-.6065q-1.80028-.9837-3.6071-1.9337a12.8821,12.8821,0,0,1-3.1195-3.8633c-3.29659-6.5352-1.303-14.0471-.6609-20.9531a136.422,136.422,0,0,0,.536-22.8508c-.4836-6.4214-1.5811-14.1627-5.801-19.2943-1.907-2.319-4.41769-4.0252-6.1704-6.5032-1.6227-2.2942-2.9171-4.7386-4.7559-6.8838-3.4213-3.9913-8.9526-2.485-11.6171,1.4781a62.81067,62.81067,0,0,1-5.2424,6.7549,57.096,57.096,0,0,0-5.1566,5.7981,18.28791,18.28791,0,0,0-2.3309,5.7447c-1.966,7.6809-2.3206,15.8097-2.4602,23.7042a88.28957,88.28957,0,0,0,1.0353,17.7401c.51251,2.7533,1.2566,5.5074,1.1151,8.3045a18.73656,18.73656,0,0,1-3.9963,9.9203c-.1439.1964-.3056.3792-.4532.5727-1.1675.5901-2.32609,1.1856-3.4743,1.7754-.8433.4331-1.6757.8704-2.5096,1.3072a80.5861,80.5861,0,0,1-3.6683-7.8582c-3.7897-8.876-11.3987-13.6632-20.5694-15.514-10.9433-2.2085-24.222,3.7041-34.4991,7.154-13.8406,4.6461-27.551,10.2061-39.3473,18.9627A155.40915,155.40915,0,0,0,417.145,142.1363c-5.08981,5.4153-13.86631,12.4878-15.55031,20.0211a7.0184,7.0184,0,0,0,.1206,3.959c1.1841,3.1805,5.0999,4.2942,8.48771,4.4962,7.75259.4623,15.67619-1.4558,23.03239-3.741,7.07361-2.1975,13.0294-7.0533,20.2532-8.8685a81.22691,81.22691,0,0,1,8.7989-1.3348c7.9344-1.0897,15.5366-3.7965,22.8831-6.8996,5.8838-2.4853,11.6742-6.8312,17.9023-8.0711,2.0463-.4073,4.1235-.6191,6.19911-.8423-.12271,1.1812-.27891,2.3177-.89061,2.8366-23.8087,20.1912-33.4675,48.0982-32.0272,83.1016.9196,22.3422,12.8165,36.9093,21.7779,52.6886-.0932.2771-.1843.5321-.268.7428-2.5477,6.4122-8.8345,9.8728-13.56109,14.558-3.48491,3.4544-6.56111,7.5091-7.88681,12.2336-1.0947,3.902-.9479,8.0805-2.1464,11.9522-.7372,2.3802-2.0557,5.2907-1.2787,7.8176.886,2.882,2.6411,5.0194,2.9696,8.2052.235,2.2799.0264,4.5839.1786,6.872.266,4.0003,2.3963,7.4106,6.7936,7.515,3.0512.0724,5.9113-1.336,8.7186-2.5334a70.55424,70.55424,0,0,1,8.5627-3.0158c5.5037-1.5484,11.1803-2.3537,14.0682-8.0631,2.0927-4.1372,7.24761-5.9952,7.5953-11.2025.1682-2.522-.9895-4.9586-1.0666-7.485a9.10172,9.10172,0,0,1,4.0321-7.5632c14.4434,15.3969,27.6462,27.2641,40.7401,27.9337,16.9786.8683,29.5328-19.2009,42.0004-27.6056a9.0497,9.0497,0,0,1,3.5766,7.2351c-.0774,2.5264-1.2351,4.963-1.0666,7.485.3477,5.2073,5.5026,7.0653,7.5951,11.2025,2.8881,5.7094,8.5647,6.5147,14.0681,8.0631a70.55693,70.55693,0,0,1,8.563,3.0158c2.8073,1.1974,5.6674,2.6058,8.7184,2.5334,4.3973-.1044,6.5276-3.5147,6.7939-7.515.1522-2.2881-.0568-4.5921.1782-6.872.3288-3.1858,2.08362-5.3232,2.9699-8.2052.7771-2.5269-.5418-5.4374-1.2787-7.8176-1.1987-3.8717-1.0517-8.0502-2.14658-11.9522-1.32572-4.7245-4.40162-8.7792-7.88662-12.2336-4.7269-4.6852-11.01338-8.1458-13.5611-14.558a18.83018,18.83018,0,0,1-.63428-1.9575c9.43008-14.2826,19.21588-25.5677,21.33928-51.4739,2.9352-35.809-8.3406-61.8831-31.6751-82.8695-.5031-.4523-.3136-1.7774-.2749-2.9162,1.6281.1779,3.2536.3702,4.8591.6898,6.2283,1.2399,12.0184,5.5858,17.9025,8.0711,7.3462,3.1031,14.9487,5.8099,22.8828,6.8996a81.23233,81.23233,0,0,1,8.7992,1.3348c7.2238,1.8152,13.1793,6.671,20.2532,8.8685,7.356,2.2852,15.2795,4.2033,23.0321,3.741,3.38782-.202,7.3036-1.3157,8.4879-4.4962A7.02017,7.02017,0,0,0,729.19978,162.1574Zm-87.097,55.5371a75.5315,75.5315,0,1,1-75.5315-75.5316A75.53158,75.53158,0,0,1,642.10278,217.6945Z" transform="translate(-20.57533 -35.32486)" style="fill: #30bccc"/>
    <path d="M242.06789,506.3017c-.0387,1.1388-.2282,2.464.2749,2.9162,13.0759,11.7602,22.3541,25.1247,27.47721,40.8983h77.39059v7.0444H21.9943v-7.0444h78.3646a86.39532,86.39532,0,0,1,27.228-41.1303c.6118-.5189.768-1.6554.8907-2.8367-2.0757.2233-4.1528.4351-6.1991.8424-6.2281,1.2398-12.0184,5.5858-17.9022,8.0711-7.3466,3.1031-14.9489,5.8098-22.8832,6.8995a81.25555,81.25555,0,0,0-8.7989,1.3349c-7.2239,1.8151-13.1794,6.671-20.2532,8.8685-7.3561,2.2851-15.2797,4.2033-23.0324,3.741-3.3878-.2021-7.3034-1.3158-8.4876-4.4962a7.01757,7.01757,0,0,1-.1207-3.959c1.684-7.5334,10.4607-14.6058,15.5504-20.0211A155.39016,155.39016,0,0,1,56.7028,488.81c11.7962-8.7566,25.5067-14.3166,39.3472-18.9627,10.2773-3.4499,23.5559-9.3626,34.4992-7.1541,9.1706,1.8509,16.7796,6.6381,20.5693,15.5141a80.5499,80.5499,0,0,0,3.6684,7.8581c.8338-.4367,1.666-.8741,2.5095-1.3072,1.1484-.5897,2.3068-1.1852,3.4743-1.7753.1476-.1935.3093-.3764.453-.5727a18.73394,18.73394,0,0,0,3.9965-9.9203c.1416-2.7971-.6025-5.5512-1.1152-8.3046a88.28091,88.28091,0,0,1-1.035-17.74c.1394-7.8946.4938-16.0233,2.46-23.7043a18.29124,18.29124,0,0,1,2.331-5.7447,57.08329,57.08329,0,0,1,5.1566-5.7981,62.82287,62.82287,0,0,0,5.2424-6.7548c2.6643-3.9631,8.1957-5.4695,11.617-1.4781,1.8386,2.1452,3.1332,4.5895,4.7559,6.8838,1.7528,2.478,4.2634,4.1842,6.1704,6.5031,4.2199,5.1316,5.3174,12.8729,5.801,19.2944a136.42021,136.42021,0,0,1-.5359,22.8507c-.6422,6.906-2.6358,14.418.661,20.9532a12.8811,12.8811,0,0,0,3.1193,3.8633q1.8072.9462,3.6071,1.9336c.3634.1987.7243.4059,1.08721.6066a83.658,83.658,0,0,0,3.54429-7.6467c3.7896-8.876,11.39871-13.6632,20.569-15.5141,10.9433-2.2085,24.222,3.7042,34.4994,7.1541,13.84031,4.6461,27.5509,10.2061,39.34731,18.9627a155.43615,155.43615,0,0,1,20.35219,18.6203c5.0896,5.4153,13.8664,12.4877,15.5501,20.0211a7.0211,7.0211,0,0,1-.1204,3.959c-1.1844,3.1804-5.1004,4.2941-8.48789,4.4962-7.753.4623-15.67621-1.4559-23.03231-3.741-7.0739-2.1975-13.0294-7.0534-20.2532-8.8685a81.25723,81.25723,0,0,0-8.7992-1.3349c-7.9341-1.0897-15.5366-3.7964-22.8828-6.8995-5.884-2.4853-11.6743-6.8313-17.90249-8.0711C245.32169,506.672,243.696,506.4797,242.06789,506.3017ZM21.9943,629.1708h86.0082c3.1014,5.2818,6.3707,10.3853,9.3352,15.6052-.0931.2771-.1843.5321-.268.7429-2.5476,6.4121-8.8344,9.8727-13.5611,14.558-3.4849,3.4544-6.5611,7.5091-7.8867,12.2336-1.0948,3.902-.948,8.0805-2.1466,11.9522-.7369,2.3801-2.0556,5.2907-1.2785,7.8176.8861,2.8819,2.641,5.0194,2.9695,8.2051.2351,2.2799.0264,4.584.1784,6.8721.2663,4.0002,2.3966,7.4105,6.7938,7.515,3.0512.0723,5.9112-1.3361,8.7186-2.5334a70.52543,70.52543,0,0,1,8.5627-3.0158c5.5038-1.5485,11.1802-2.3537,14.0682-8.0632,2.0927-4.1372,7.2476-5.9951,7.5953-11.2025.1684-2.522-.9895-4.9585-1.0667-7.4849a9.10216,9.10216,0,0,1,4.0323-7.5632c14.4432,15.3969,27.6461,27.2641,40.7401,27.9337,16.97839.8682,29.53279-19.2009,42.00039-27.6057a9.04994,9.04994,0,0,1,3.5765,7.2352c-.0772,2.5264-1.2351,4.9629-1.0665,7.4849.3477,5.2074,5.5025,7.0653,7.5951,11.2025,2.888,5.7095,8.56451,6.5147,14.0682,8.0632a70.525,70.525,0,0,1,8.5627,3.0158c2.8075,1.1973,5.6674,2.6057,8.7185,2.5334,4.3973-.1045,6.5276-3.5148,6.7939-7.515.15221-2.2881-.05679-4.5922.1784-6.8721.3286-3.1857,2.0834-5.3232,2.9697-8.2051.7769-2.5269-.5417-5.4375-1.2787-7.8176-1.1985-3.8717-1.0516-8.0502-2.1466-11.9522-1.32559-4.7245-4.40159-8.7792-7.8865-12.2336-4.727-4.6853-11.0136-8.1459-13.56109-14.558a18.83189,18.83189,0,0,1-.63441-1.9576c3.2415-4.9093,6.5183-9.4731,9.5177-14.3905h85.0143v-7.0444H21.9943Z" transform="translate(-20.57533 -35.32486)" style="fill: #4477bc"/>
  </g>
</svg>
